<!DOCTYPE svg PUBLIC "-//W3C//DTD SVG 1.1//EN" "http://www.w3.org/Graphics/SVG/1.1/DTD/svg11.dtd">
<!-- Uploaded to: SVG Repo, www.svgrepo.com, Transformed by: SVG Repo Mixer Tools -->
<svg fill="#000000" width="800px" height="800px" viewBox="0 0 512 512" xmlns="http://www.w3.org/2000/svg">
<g id="SVGRepo_bgCarrier" stroke-width="0"/>
<g id="SVGRepo_tracerCarrier" stroke-linecap="round" stroke-linejoin="round" stroke="#CCCCCC" stroke-width="1.024"> <title/> <g id="waste_sorting"> <path d="M263,272.72a7,7,0,0,0-7,7v54.87H105.65a7,7,0,0,0-7,7v36.25h-9.2a5.5,5.5,0,0,0-3.79,9.48l16.19,15.46a5.5,5.5,0,0,0,7.59,0l16.19-15.46a5.5,5.5,0,0,0-3.79-9.48h-9.19V348.59H256v29.25h-9.19a5.5,5.5,0,0,0-3.8,9.48l16.2,15.46a5.5,5.5,0,0,0,7.59,0L283,387.32a5.5,5.5,0,0,0-3.79-9.48H270V348.59H409.38v29.25h-9.19a5.5,5.5,0,0,0-3.8,9.48l16.19,15.46a5.51,5.51,0,0,0,7.6,0l16.19-15.46a5.5,5.5,0,0,0-3.8-9.48h-9.19V341.59a7,7,0,0,0-7-7H270V279.72A7,7,0,0,0,263,272.72Z"/> <path d="M105.65,426.87a36.79,36.79,0,1,0,36.79,36.79A36.83,36.83,0,0,0,105.65,426.87Zm0,59.58a22.79,22.79,0,1,1,22.79-22.79A22.81,22.81,0,0,1,105.65,486.45Z"/> <path d="M290.6,431.29H233.43a7,7,0,0,0-7,7v55.16a7,7,0,0,0,7,7H290.6a7,7,0,0,0,7-7V438.29A7,7,0,0,0,290.6,431.29Zm-7,55.16H240.43V445.29H283.6Z"/> <path d="M422.38,430.68a7,7,0,0,0-12,0L374.8,489.84a7,7,0,0,0,6,10.61H452a7,7,0,0,0,6-10.61Zm-29.2,55.77,23.2-38.58,23.21,38.58Z"/> <path d="M470.27,97.9,453,85.41A7,7,0,0,0,443.23,87l-13,18L380.54,69a10.13,10.13,0,0,0-14.14,2.26L356,85.57l-.35-.25a10.14,10.14,0,0,0-14.78,3.27l-9.3,16.66a10.13,10.13,0,0,0,2.9,13.14l1.37,1-13,21L323,21.72A13.55,13.55,0,0,0,309.48,8.16l-22.4,0h0a13.54,13.54,0,0,0-13.53,13.54l0,39.2-32.43,0,0-39.2A13.55,13.55,0,0,0,227.6,8.09l-22.41,0h0a13.54,13.54,0,0,0-13.52,13.54l-.12,125.78-4.69-4.68a42.59,42.59,0,0,0-23.91-12.07l-40-6L114.36,116l3.39-3.39a7,7,0,0,0,0-9.9l-12.4-12.4a14,14,0,0,0-9.93-4.11h0a13.92,13.92,0,0,0-9.93,4.12l-27.39,27.4a14.06,14.06,0,0,0,0,19.87L70.49,150a7,7,0,0,0,5,2.05h0a7,7,0,0,0,5-2.05l2.88-2.89,9.42,9.41,5.41,38.74a43.21,43.21,0,0,0,12.16,24.38L175,284.38a25.62,25.62,0,0,0,18.23,7.55h0a25.65,25.65,0,0,0,18.24-7.57l40.28-40.3a25.67,25.67,0,0,0,7.55-18.25,1.93,1.93,0,0,0,0-.24h11.09a13.34,13.34,0,0,0,4.31,16.26L321.87,276a13.36,13.36,0,0,0,18-2.23l79.25-94.09,2.88,2.08a10.11,10.11,0,0,0,13.39-1.34l12.93-14a10.13,10.13,0,0,0-1.52-15.06l-2.12-1.54,10.37-14.33a10.12,10.12,0,0,0-2.26-14.14l-11.23-8.13,8.91-12.31,11.59,8.39a7,7,0,0,0,8.21-11.34ZM241.06,74.85l32.44,0v8.85A5.22,5.22,0,0,1,272,87.45,5.15,5.15,0,0,1,268.29,89h0l-22,0a5.24,5.24,0,0,1-5.2-5.27ZM78.32,132.29l0,0-2.84,2.85L68,127.66l27.46-27.41,7.46,7.45-8.48,8.48ZM96.88,141l-3.71-3.71,11.3-11.3,3.71,3.71,3.15,3.15L100,144.1Zm145,93.21L201.6,274.47a11.76,11.76,0,0,1-8.34,3.46h0a11.69,11.69,0,0,1-8.33-3.46l-64.76-64.7A29,29,0,0,1,112,193.35l-5.08-36.3,18-18,36,5.44a28.62,28.62,0,0,1,16.1,8.12l64.93,64.87a11.81,11.81,0,0,1,0,16.68Zm9.89-26.59-46.24-46.2.13-139.3,21.45,0-.05,61.59A19.26,19.26,0,0,0,246.25,103l22,0h0a19.22,19.22,0,0,0,19.2-19.24l.05-61.6,21.45,0L308.82,205a6.56,6.56,0,0,1-1.93,4.66,6.46,6.46,0,0,1-4.6,1.91h0l-47.24,0A26.42,26.42,0,0,0,251.77,207.57Zm77.79,56.69-46.12-33.38,3.26-5.28h15.59a20.55,20.55,0,0,0,20.53-20.56l0-38,24.38-39.46,60.52,43.81Zm97.86-95.88-81.93-59.31,5.5-9.85,84.07,60.86Zm5.92-26.83-15.09-10.93L367.36,93.78l8.1-11.19,66,47.77Z"/> </g> </g>
<g id="SVGRepo_iconCarrier"> <title/> <g id="waste_sorting"> <path d="M263,272.72a7,7,0,0,0-7,7v54.87H105.65a7,7,0,0,0-7,7v36.25h-9.2a5.5,5.5,0,0,0-3.79,9.48l16.19,15.46a5.5,5.5,0,0,0,7.59,0l16.19-15.46a5.5,5.5,0,0,0-3.79-9.48h-9.19V348.59H256v29.25h-9.19a5.5,5.5,0,0,0-3.8,9.48l16.2,15.46a5.5,5.5,0,0,0,7.59,0L283,387.32a5.5,5.5,0,0,0-3.79-9.48H270V348.59H409.38v29.25h-9.19a5.5,5.5,0,0,0-3.8,9.48l16.19,15.46a5.51,5.51,0,0,0,7.6,0l16.19-15.46a5.5,5.5,0,0,0-3.8-9.48h-9.19V341.59a7,7,0,0,0-7-7H270V279.72A7,7,0,0,0,263,272.72Z"/> <path d="M105.65,426.87a36.79,36.79,0,1,0,36.79,36.79A36.83,36.83,0,0,0,105.65,426.87Zm0,59.58a22.79,22.79,0,1,1,22.79-22.79A22.81,22.81,0,0,1,105.65,486.45Z"/> <path d="M290.6,431.29H233.43a7,7,0,0,0-7,7v55.16a7,7,0,0,0,7,7H290.6a7,7,0,0,0,7-7V438.29A7,7,0,0,0,290.6,431.29Zm-7,55.16H240.43V445.29H283.6Z"/> <path d="M422.38,430.68a7,7,0,0,0-12,0L374.8,489.84a7,7,0,0,0,6,10.61H452a7,7,0,0,0,6-10.61Zm-29.2,55.77,23.2-38.58,23.21,38.58Z"/> <path d="M470.27,97.9,453,85.41A7,7,0,0,0,443.23,87l-13,18L380.54,69a10.13,10.13,0,0,0-14.14,2.26L356,85.57l-.35-.25a10.14,10.14,0,0,0-14.78,3.27l-9.3,16.66a10.13,10.13,0,0,0,2.9,13.14l1.37,1-13,21L323,21.72A13.55,13.55,0,0,0,309.48,8.16l-22.4,0h0a13.54,13.54,0,0,0-13.53,13.54l0,39.2-32.43,0,0-39.2A13.55,13.55,0,0,0,227.6,8.09l-22.41,0h0a13.54,13.54,0,0,0-13.52,13.54l-.12,125.78-4.69-4.68a42.59,42.59,0,0,0-23.91-12.07l-40-6L114.36,116l3.39-3.39a7,7,0,0,0,0-9.9l-12.4-12.4a14,14,0,0,0-9.93-4.11h0a13.92,13.92,0,0,0-9.93,4.12l-27.39,27.4a14.06,14.06,0,0,0,0,19.87L70.49,150a7,7,0,0,0,5,2.05h0a7,7,0,0,0,5-2.05l2.88-2.89,9.42,9.41,5.41,38.74a43.21,43.21,0,0,0,12.16,24.38L175,284.38a25.62,25.62,0,0,0,18.23,7.55h0a25.65,25.65,0,0,0,18.24-7.57l40.28-40.3a25.67,25.67,0,0,0,7.55-18.25,1.93,1.93,0,0,0,0-.24h11.09a13.34,13.34,0,0,0,4.31,16.26L321.87,276a13.36,13.36,0,0,0,18-2.23l79.25-94.09,2.88,2.08a10.11,10.11,0,0,0,13.39-1.34l12.93-14a10.13,10.13,0,0,0-1.52-15.06l-2.12-1.54,10.37-14.33a10.12,10.12,0,0,0-2.26-14.14l-11.23-8.13,8.91-12.31,11.59,8.39a7,7,0,0,0,8.21-11.34ZM241.06,74.85l32.44,0v8.85A5.22,5.22,0,0,1,272,87.45,5.15,5.15,0,0,1,268.29,89h0l-22,0a5.24,5.24,0,0,1-5.2-5.27ZM78.32,132.29l0,0-2.84,2.85L68,127.66l27.46-27.41,7.46,7.45-8.48,8.48ZM96.88,141l-3.71-3.71,11.3-11.3,3.71,3.71,3.15,3.15L100,144.1Zm145,93.21L201.6,274.47a11.76,11.76,0,0,1-8.34,3.46h0a11.69,11.69,0,0,1-8.33-3.46l-64.76-64.7A29,29,0,0,1,112,193.35l-5.08-36.3,18-18,36,5.44a28.62,28.62,0,0,1,16.1,8.12l64.93,64.87a11.81,11.81,0,0,1,0,16.68Zm9.89-26.59-46.24-46.2.13-139.3,21.45,0-.05,61.59A19.26,19.26,0,0,0,246.25,103l22,0h0a19.22,19.22,0,0,0,19.2-19.24l.05-61.6,21.45,0L308.82,205a6.56,6.56,0,0,1-1.93,4.66,6.46,6.46,0,0,1-4.6,1.91h0l-47.24,0A26.42,26.42,0,0,0,251.77,207.57Zm77.79,56.69-46.12-33.38,3.26-5.28h15.59a20.55,20.55,0,0,0,20.53-20.56l0-38,24.38-39.46,60.52,43.81Zm97.86-95.88-81.93-59.31,5.5-9.85,84.07,60.86Zm5.92-26.83-15.09-10.93L367.36,93.78l8.1-11.19,66,47.77Z"/> </g> </g>
</svg>